<?xml version="1.0" encoding="UTF-8"?>
<svg width="14px" height="20px" viewBox="0 0 14 20" version="1.1" xmlns="http://www.w3.org/2000/svg" xmlns:xlink="http://www.w3.org/1999/xlink">
    <!-- Generator: Sketch 52 (66869) - http://www.bohemiancoding.com/sketch -->
    <title>facebook-placeholder-for-locate-places-on-maps</title>
    <desc>Created with Sketch.</desc>
    <g id="Symbols" stroke="none" stroke-width="1" fill="none" fill-rule="evenodd">
        <g id="city" transform="translate(-10.000000, -2.000000)" fill="#6C63FF" fill-rule="nonzero">
            <g id="Group-5-Copy">
                <g id="facebook-placeholder-for-locate-places-on-maps" transform="translate(10.000000, 2.000000)">
                    <path d="M13.6339329,4.96756381 C13.5620067,4.7012993 13.4159463,4.41758701 13.3078926,4.16918794 C12.0149128,1.0999536 9.18977852,0 6.90862416,0 C3.85488591,0 0.491550336,2.0225522 0.0425167785,6.19150812 L0.0425167785,7.04324826 C0.0425167785,7.0787935 0.0549194631,7.39809745 0.0725369128,7.55781903 C0.324255034,9.54464037 1.9114698,11.6561949 3.09686577,13.6430162 C4.37218121,15.7716937 5.69551007,17.8657077 7.00657718,19.9588399 C7.81500671,18.5929002 8.62052349,17.2090023 9.41053691,15.8784223 C9.62584564,15.487935 9.87577852,15.0976798 10.0913221,14.7249652 C10.2349866,14.4767981 10.509443,14.2286311 10.6348322,13.9977262 C11.9101007,11.6915081 13.9627919,9.367471 13.9627919,7.0787471 L13.9627919,6.13851508 C13.9628389,5.89039443 13.6514564,5.02106729 13.6339329,4.96756381 Z M6.9645302,9.24329466 C6.06688591,9.24329466 5.08434899,8.7999536 4.59937584,7.57559165 C4.52712081,7.38069606 4.53294631,6.99011601 4.53294631,6.95433875 L4.53294631,6.40436195 C4.53294631,4.84352668 5.87469128,4.1337355 7.04195302,4.1337355 C8.47897315,4.1337355 9.59037584,5.26932715 9.59037584,6.6887239 C9.59037584,8.10807425 8.40155034,9.24329466 6.9645302,9.24329466 Z" id="Facebook_Places"></path>
                </g>
            </g>
        </g>
    </g>
</svg>