<?xml version="1.0" encoding="UTF-8"?>
<svg width="1433px" height="259px" viewBox="0 0 1433 259" version="1.1" xmlns="http://www.w3.org/2000/svg" xmlns:xlink="http://www.w3.org/1999/xlink">
    <!-- Generator: Sketch 52 (66869) - http://www.bohemiancoding.com/sketch -->
    <title>Hero1440</title>
    <desc>Created with Sketch.</desc>
    <g id="Page-1" stroke="none" stroke-width="1" fill="none" fill-rule="evenodd">
        <g id="Hero1440" transform="translate(-2.000000, -24.000000)" fill="#6C63FF">
            <g id="portfolio" transform="translate(1314.985799, 118.004150) rotate(-18.000000) translate(-1314.985799, -118.004150) translate(1212.485799, 28.004150)" fill-rule="nonzero" opacity="0.25">
                <path d="M198.336258,24.0015624 C198.32379,24.0015624 198.311321,24 198.298853,24 L144.035987,24 L144.035987,18 C144.035987,8.075 135.981343,0 126.081363,0 L78.2023644,0 C68.302384,0 60.2477399,8.075 60.2477399,18 L60.2477399,24 L5.98487483,24 C2.65267128,24 0,26.7375 0,30 L0,162 C0,171.925 8.05464404,180 17.9546245,180 L186.329103,180 C196.229083,180 204.283727,171.925 204.283727,162 L204.283727,30.1265624 C204.283727,30.11875 204.283727,30.1109376 204.283727,30.1031248 C204.054619,26.1625 201.637291,24.0234376 198.336258,24.0015624 Z M72.2174896,18 C72.2174896,14.6921876 74.9028905,12 78.2023644,12 L126.081363,12 C129.380837,12 132.066238,14.6921876 132.066238,18 L132.066238,24 L72.2174896,24 L72.2174896,18 Z M189.994839,36 L171.408997,91.8968752 C170.59387,94.3515624 168.312136,96 165.732717,96 L132.066238,96 L132.066238,90 C132.066238,86.6859376 129.387071,84 126.081363,84 L78.2023644,84 C74.8966563,84 72.2174896,86.6859376 72.2174896,90 L72.2174896,96 L38.5510102,96 C35.9715914,96 33.6898579,94.3515624 32.8747303,91.8968752 L14.2888886,36 L189.994839,36 Z M120.096488,96 L120.096488,108 L84.1872392,108 L84.1872392,96 L120.096488,96 Z M192.313978,162 C192.313978,165.307812 189.628577,168 186.329103,168 L17.9546245,168 C14.6551506,168 11.9697497,165.307812 11.9697497,162 L11.9697497,66.9734376 L21.5190539,95.6921876 C23.9659947,103.054688 30.8111953,108 38.5510102,108 L72.2174896,108 L72.2174896,114 C72.2174896,117.314062 74.8966563,120 78.2023644,120 L126.081363,120 C129.387071,120 132.066238,117.314062 132.066238,114 L132.066238,108 L165.732717,108 C173.472532,108 180.317733,103.054688 182.764673,95.6921876 L192.313978,66.9734376 L192.313978,162 Z" id="Shape"></path>
            </g>
            <g id="resume-copy" transform="translate(132.794286, 153.181913) rotate(-15.000000) translate(-132.794286, -153.181913) translate(24.294286, 45.181913)" opacity="0.253650484">
                <path d="M174.902123,62.7539062 C177.234957,62.7539062 179.12674,60.8651719 179.12674,58.5351562 L179.12674,12.65625 C179.12674,5.67759375 173.44125,0 166.452888,0 L12.6768098,0 C5.6884475,0 0.00295723227,5.67759375 0.00295723227,12.65625 L0.00295723227,203.34375 C0.00295723227,210.322406 5.6884475,216 12.6768098,216 L166.452888,216 C173.44125,216 179.12674,210.322406 179.12674,203.34375 L179.12674,172.263375 C179.12674,169.933359 177.234957,168.044625 174.902123,168.044625 C172.569289,168.044625 170.677505,169.933359 170.677505,172.263375 L170.677505,203.34375 C170.677505,205.669969 168.782342,207.5625 166.452888,207.5625 L12.6768098,207.5625 C10.3473557,207.5625 8.45219228,205.669969 8.45219228,203.34375 L8.45219228,12.65625 C8.45219228,10.3300313 10.3473557,8.4375 12.6768098,8.4375 L166.452888,8.4375 C168.782342,8.4375 170.677505,10.3300313 170.677505,12.65625 L170.677505,58.5351562 C170.677505,60.8651719 172.569289,62.7539062 174.902123,62.7539062 Z" id="Path"></path>
                <path d="M89.5648487,22.78125 C68.1337865,22.78125 50.6983675,40.1924531 50.6983675,61.59375 C50.6983675,72.6962344 55.3919176,82.7233594 62.8999079,89.8041094 C63.0405876,89.9542969 63.1901391,90.0964688 63.3536318,90.2259844 C70.2697531,96.54525 79.4739273,100.405828 89.5644263,100.405828 C99.6549252,100.405828 108.859099,96.5448281 115.775221,90.2259844 C115.938713,90.0964688 116.088265,89.953875 116.228945,89.8041094 C123.73778,82.7233594 128.43133,72.6962344 128.43133,61.59375 C128.43133,40.1924531 110.995911,22.78125 89.5648487,22.78125 Z M89.5648487,91.96875 C82.6664708,91.96875 76.2999722,89.66025 71.1915647,85.7806875 C74.904581,79.2057656 81.8333762,75.09375 89.5648487,75.09375 C97.2963213,75.09375 104.225116,79.2057656 107.938133,85.7806875 C102.829303,89.66025 96.4632267,91.96875 89.5648487,91.96875 Z M82.8054607,59.90625 L82.8054607,57.1640625 C82.8054607,53.4422813 85.8378912,50.4140625 89.5648487,50.4140625 C93.2918063,50.4140625 96.3242368,53.4422813 96.3242368,57.1640625 L96.3242368,59.90625 C96.3242368,63.6280313 93.2918063,66.65625 89.5648487,66.65625 C85.8378912,66.65625 82.8054607,63.6280313 82.8054607,59.90625 Z M114.042283,79.6006406 C110.926627,74.9861719 106.608646,71.3972813 101.595292,69.1815938 C103.585087,66.6136406 104.773472,63.3968438 104.773472,59.90625 L104.773472,57.1640625 C104.773472,48.7894219 97.951137,41.9765625 89.5648487,41.9765625 C81.1785605,41.9765625 74.3562257,48.7894219 74.3562257,57.1640625 L74.3562257,59.90625 C74.3562257,63.3968438 75.5446106,66.6136406 77.5344054,69.1815938 C72.5210518,71.3972813 68.2030702,74.9861719 65.0874148,79.6006406 C61.3575,74.5579688 59.1476026,68.3298281 59.1476026,61.59375 C59.1476026,44.8448906 72.7926947,31.21875 89.5648487,31.21875 C106.337003,31.21875 119.982095,44.8448906 119.982095,61.59375 C119.982095,68.3298281 117.772197,74.5579688 114.042283,79.6006406 Z" id="Shape" fill-rule="nonzero"></path>
                <path d="M112.377783,184.78125 L89.5648487,184.78125 C87.232015,184.78125 85.3402312,186.669984 85.3402312,189 C85.3402312,191.330016 87.232015,193.21875 89.5648487,193.21875 L112.377783,193.21875 C114.710617,193.21875 116.602401,191.330016 116.602401,189 C116.602401,186.669984 114.710617,184.78125 112.377783,184.78125 Z" id="Path"></path>
                <path d="M112.377783,161.15625 L52.3882145,161.15625 C50.0553807,161.15625 48.163597,163.044984 48.163597,165.375 C48.163597,167.705016 50.0553807,169.59375 52.3882145,169.59375 L112.377783,169.59375 C114.710617,169.59375 116.602401,167.705016 116.602401,165.375 C116.602401,163.044984 114.710617,161.15625 112.377783,161.15625 Z" id="Path"></path>
                <path d="M112.377783,137.53125 L52.3882145,137.53125 C50.0553807,137.53125 48.163597,139.419984 48.163597,141.75 C48.163597,144.080016 50.0553807,145.96875 52.3882145,145.96875 L112.377783,145.96875 C114.710617,145.96875 116.602401,144.080016 116.602401,141.75 C116.602401,139.419984 114.710617,137.53125 112.377783,137.53125 Z" id="Path"></path>
                <path d="M37.3312552,115.142344 C36.5458988,114.357656 35.4559475,113.90625 34.3406485,113.90625 C33.2291516,113.90625 32.1392003,114.357656 31.3538439,115.142344 C30.568065,115.927031 30.1160309,117.015469 30.1160309,118.125 C30.1160309,119.234531 30.5676426,120.322969 31.3538439,121.107656 C32.1438474,121.892344 33.2291516,122.34375 34.3406485,122.34375 C35.4559475,122.34375 36.5416742,121.892344 37.3312552,121.107656 C38.1170341,120.322969 38.5694906,119.234531 38.5694906,118.125 C38.5694906,117.015469 38.1174565,115.927031 37.3312552,115.142344 Z" id="Path"></path>
                <path d="M37.3312552,138.767344 C36.5416742,137.982656 35.4559475,137.53125 34.3406485,137.53125 C33.2291516,137.53125 32.1438474,137.982656 31.3538439,138.767344 C30.568065,139.552031 30.1160309,140.640469 30.1160309,141.75 C30.1160309,142.859531 30.5676426,143.947969 31.3538439,144.732656 C32.1438474,145.517344 33.2291516,145.96875 34.3406485,145.96875 C35.4559475,145.96875 36.5416742,145.517344 37.3312552,144.732656 C38.1170341,143.947969 38.5694906,142.859531 38.5694906,141.75 C38.5694906,140.640469 38.1174565,139.552031 37.3312552,138.767344 Z" id="Path"></path>
                <path d="M37.3312552,162.392344 C36.5416742,161.607656 35.4559475,161.15625 34.3406485,161.15625 C33.2291516,161.15625 32.1438474,161.607656 31.3538439,162.392344 C30.568065,163.177031 30.1160309,164.265469 30.1160309,165.375 C30.1160309,166.484531 30.5676426,167.572969 31.3538439,168.357656 C32.1392003,169.142344 33.2291516,169.59375 34.3406485,169.59375 C35.4559475,169.59375 36.5458988,169.142344 37.3312552,168.357656 C38.1170341,167.572969 38.5694906,166.484531 38.5694906,165.375 C38.5694906,164.265469 38.1174565,163.177031 37.3312552,162.392344 Z" id="Path"></path>
                <path d="M112.377783,113.90625 L52.3882145,113.90625 C50.0553807,113.90625 48.163597,115.794984 48.163597,118.125 C48.163597,120.455016 50.0553807,122.34375 52.3882145,122.34375 L112.377783,122.34375 C114.710617,122.34375 116.602401,120.455016 116.602401,118.125 C116.602401,115.794984 114.710617,113.90625 112.377783,113.90625 Z" id="Path"></path>
                <path d="M207.429565,54.97875 C203.325349,52.6124531 198.543927,51.9838594 193.965287,53.2085625 C189.387491,54.4336875 185.560833,57.3657187 183.191667,61.4642344 L130.028235,153.417375 C129.737159,153.921516 129.552966,154.4805 129.488329,155.058891 L125.746163,188.532141 C125.56028,190.197703 126.379011,191.815594 127.832279,192.653859 C128.488362,193.031859 129.217109,193.219172 129.944166,193.219172 C130.827955,193.219172 131.708366,192.942844 132.449786,192.397359 L159.607317,172.424109 C160.076672,172.079016 160.469562,171.640687 160.760638,171.136547 L213.923647,79.1834062 C218.815755,70.7222812 215.902458,59.8640625 207.429565,54.97875 Z M135.214376,179.884969 L137.168684,162.405844 L149.395572,169.455375 L135.214376,179.884969 Z M155.555909,163.263937 L139.458004,153.982687 L182.120304,80.1925312 L198.218209,89.4737812 L155.555909,163.263937 Z M206.60661,74.9642344 L202.442404,82.1669063 L186.344499,72.8856563 L190.508705,65.6829844 C191.749897,63.5360625 193.754056,62.0004375 196.151949,61.3587656 C198.550687,60.7166719 201.05504,61.0465781 203.204525,62.2860469 C205.354433,63.5255156 206.892194,65.5268906 207.534758,67.9214531 C208.177323,70.3160156 207.847803,72.8173125 206.60661,74.9642344 Z" id="Shape" fill-rule="nonzero"></path>
            </g>
        </g>
    </g>
</svg>