<?xml version="1.0" encoding="UTF-8"?>
<svg width="56px" height="56px" viewBox="0 0 56 56" version="1.1" xmlns="http://www.w3.org/2000/svg" xmlns:xlink="http://www.w3.org/1999/xlink">
    <!-- Generator: Sketch 52 (66869) - http://www.bohemiancoding.com/sketch -->
    <title>target</title>
    <desc>Created with Sketch.</desc>
    <g id="Page-1" stroke="none" stroke-width="1" fill="none" fill-rule="evenodd">
        <g id="Create-Job-Copy" transform="translate(-231.000000, -613.000000)" fill="#000000">
            <g id="form-area" transform="translate(128.000000, 234.000000)">
                <g id="Group-3" transform="translate(30.000000, 379.000000)">
                    <g id="Group-2">
                        <g id="target" transform="translate(73.000000, 0.000000)">
                            <path d="M41.0194531,24.6229375 C40.7512656,23.944375 39.9837813,23.6120938 39.305,23.8800625 C38.6264375,24.1483594 38.2939375,24.9159531 38.562125,25.5945156 C39.2335781,27.2925625 39.5738438,29.0871875 39.5738438,30.9287344 C39.5738438,38.9284219 33.0657031,45.4367813 25.0657969,45.4367813 C17.0653438,45.4367813 10.5563281,38.9284219 10.5563281,30.9287344 C10.5563281,22.9290469 17.0653438,16.4206875 25.0657969,16.4206875 C26.9137969,16.4206875 28.7114844,16.7631406 30.4089844,17.4385313 C31.0867813,17.7085781 31.8551406,17.3772813 32.1249688,16.6994844 C32.3947969,16.0214688 32.0638281,15.2532188 31.3859219,14.9835 C29.3762656,14.18375 27.2497969,13.7782969 25.0659063,13.7782969 C15.6084688,13.7782969 7.91404688,21.4718438 7.91404688,30.928625 C7.91404688,40.3854063 15.6081406,48.0790625 25.0657969,48.0790625 C34.5224688,48.0790625 42.216125,40.3855156 42.216125,30.9287344 C42.216125,28.7531563 41.8134063,26.6317188 41.0194531,24.6229375 Z" id="Path"></path>
                            <path d="M49.1647188,24.0195156 C48.9640156,23.3179844 48.2330625,22.9125313 47.5310938,23.1127969 C46.8295625,23.3136094 46.4236719,24.045 46.624375,24.7464219 C47.1970625,26.7482031 47.4874531,28.8282969 47.4874531,30.9285156 C47.4874531,43.2927031 37.4291094,53.3519219 25.0656875,53.3519219 C12.7015,53.3519219 2.64239062,43.2928125 2.64239062,30.9285156 C2.64239062,18.5642188 12.7013906,8.50532813 25.0656875,8.50532813 C27.1707188,8.50532813 29.2543125,8.79703125 31.2582813,9.37245313 C31.9597031,9.57370313 32.6914219,9.16857813 32.8926719,8.46715625 C33.0940313,7.76573438 32.6887969,7.03401563 31.987375,6.83276563 C29.7463906,6.18920313 27.4174688,5.86282813 25.0656875,5.86282813 C11.2444063,5.8629375 0,17.1073438 0,30.928625 C0,44.7499063 11.2444063,55.9944219 25.0656875,55.9944219 C38.8860938,55.9944219 50.1298438,44.7500156 50.1298438,30.928625 C50.1298438,28.5823125 49.8051094,26.2577656 49.1647188,24.0195156 Z" id="Path"></path>
                            <path d="M34.2647813,30.1219844 C34.2000313,29.3951875 33.5578906,28.8614375 32.8314219,28.9234531 C32.104625,28.9883125 31.5679219,29.630125 31.6328906,30.3569219 C31.649625,30.5450469 31.6581562,30.7374375 31.6581562,30.9287344 C31.6581562,34.5640312 28.7006562,37.5213125 25.0655781,37.5213125 C21.4295156,37.5213125 18.4713594,34.5638125 18.4713594,30.9287344 C18.4715781,27.2925625 21.429625,24.3345156 25.0656875,24.3345156 C25.2687969,24.3345156 25.4676406,24.343375 25.6569687,24.3607656 C26.3842031,24.4274844 27.0268906,23.8930781 27.0939375,23.1663906 C27.160875,22.4398125 26.6261406,21.7965781 25.8995625,21.7294219 C25.6300625,21.7045938 25.3495156,21.6920156 25.0657969,21.6920156 C19.97275,21.6920156 15.8291875,25.8353594 15.8291875,30.9285156 C15.8291875,36.0207969 19.97275,40.1634844 25.0657969,40.1634844 C30.1579688,40.1634844 34.3007656,36.0207969 34.3007656,30.9285156 C34.3006563,30.6593437 34.288625,30.3877656 34.2647813,30.1219844 Z" id="Path"></path>
                            <path d="M55.7975469,8.88825 C55.3870625,7.89709375 54.4285,7.25659375 53.3556406,7.25659375 L48.748875,7.25659375 L48.748875,2.6499375 C48.748875,1.57696875 48.108375,0.618515625 47.1172188,0.20803125 C46.1265,-0.20234375 44.9963281,0.022640625 44.2379219,0.781046875 L36.5405469,8.47853125 C35.7922031,9.22676563 35.3801875,10.2218594 35.3801875,11.2805 L35.3801875,18.7568281 L24.6428438,29.4941719 C24.1269219,30.0100938 24.1269219,30.8467031 24.6428438,31.3627344 C24.90075,31.6206406 25.2389375,31.7497031 25.5770156,31.7497031 C25.9150938,31.7497031 26.2532812,31.6206406 26.5111875,31.3627344 L37.2486406,20.6252813 L44.7249688,20.6252813 C45.7836094,20.6252813 46.7788125,20.2131563 47.5269375,19.4650313 L55.2244219,11.7673281 C55.9830469,11.0088125 56.2079219,9.87885938 55.7975469,8.88825 Z M38.0225781,11.2803906 C38.0226875,10.9276563 38.1599531,10.5960313 38.4091094,10.3469844 L46.1064844,2.65070312 L46.1064844,8.03064063 L38.0224688,16.1146563 L38.0224688,11.2803906 L38.0225781,11.2803906 Z M45.6585937,17.5964688 C45.4131562,17.8419063 45.0727812,17.9828906 44.7250781,17.9828906 L39.8911406,17.9828906 L47.9749375,9.89909375 L53.3553125,9.89975 L45.6585937,17.5964688 Z" id="Shape" fill-rule="nonzero"></path>
                        </g>
                    </g>
                </g>
            </g>
        </g>
    </g>
</svg>